<svg width="14" height="14" viewBox="0 0 14 14" fill="none" xmlns="http://www.w3.org/2000/svg">
<path d="M12.3639 11.6463L1.80316 1.08557C1.39615 0.678558 0.833611 0.581245 0.546649 0.868207C0.259687 1.15517 0.357059 1.71777 0.764014 2.12472L11.3247 12.6854C11.7318 13.0925 12.2943 13.1898 12.5813 12.9028C12.8683 12.6158 12.7709 12.0533 12.3639 11.6463Z" fill="black"/>
<path d="M11.2977 0.736941L0.736939 11.2977C0.329926 11.7047 0.232611 12.2672 0.519573 12.5542C0.806534 12.8411 1.36913 12.7438 1.77609 12.3368L12.3368 1.77609C12.7438 1.36907 12.8411 0.806537 12.5542 0.519575C12.2672 0.232572 11.7047 0.329927 11.2977 0.736941Z" fill="black"/>
</svg>
