<svg width="24" height="23" viewBox="0 0 24 23" fill="none" xmlns="http://www.w3.org/2000/svg">
<path d="M23.6177 0.374129C23.6163 0.372782 23.6152 0.371345 23.6138 0.369998C23.6124 0.36865 23.6109 0.367573 23.6095 0.366315C23.236 0.0114652 22.7002 -0.0951426 22.2098 0.0885694L0.833871 8.09569C0.268743 8.30733 -0.0623361 8.83736 0.0098048 9.41446C0.0821332 9.99159 0.53462 10.4315 1.13589 10.5092L11.5833 11.859C11.6028 11.8615 11.6185 11.8764 11.6212 11.8953L13.0301 21.9038C13.1112 22.4798 13.5704 22.9134 14.1729 22.9826C14.2279 22.9889 14.2824 22.9919 14.3364 22.9919C14.8735 22.9919 15.3486 22.6851 15.5495 22.1932L23.9077 1.7149C24.0994 1.24518 23.9882 0.731988 23.6177 0.374129ZM1.30534 9.3069C1.2819 9.30385 1.27136 9.30255 1.26728 9.27004C1.26325 9.23752 1.27319 9.23375 1.29508 9.22562L21.2946 1.73403L11.9404 10.6954C11.8794 10.6785 1.30534 9.3069 1.30534 9.3069ZM14.37 21.7514C14.3614 21.7723 14.358 21.782 14.3236 21.7779C14.2897 21.7741 14.2883 21.7639 14.2852 21.7416C14.2852 21.7416 12.8535 11.6116 12.8358 11.5532L22.19 2.59188L14.37 21.7514Z" fill="white"/>
</svg>
